<?xml version="1.0" encoding="UTF-8" standalone="no"?>
<svg
   version="1.1"
   viewBox="0 0 80 25"
   id="svg61"
   sodipodi:docname="logo_bizikleteroak_red.svg"
   inkscape:version="1.2.2 (732a01da63, 2022-12-09)"
   xmlns:inkscape="http://www.inkscape.org/namespaces/inkscape"
   xmlns:sodipodi="http://sodipodi.sourceforge.net/DTD/sodipodi-0.dtd"
   xmlns="http://www.w3.org/2000/svg"
   xmlns:svg="http://www.w3.org/2000/svg">
  <defs
     id="defs65" />
  <sodipodi:namedview
     id="namedview63"
     pagecolor="#ffffff"
     bordercolor="#000000"
     borderopacity="0.25"
     inkscape:showpageshadow="2"
     inkscape:pageopacity="0.0"
     inkscape:pagecheckerboard="0"
     inkscape:deskcolor="#d1d1d1"
     showgrid="false"
     inkscape:zoom="15.125"
     inkscape:cx="31.173554"
     inkscape:cy="12.495868"
     inkscape:window-width="1920"
     inkscape:window-height="1057"
     inkscape:window-x="-8"
     inkscape:window-y="-8"
     inkscape:window-maximized="1"
     inkscape:current-layer="svg61" />
  <circle
     r="5.6885414"
     cy="12.746052"
     cx="15.200311"
     id="circle876"
     style="vector-effect:none;fill:#ffffff;fill-opacity:1;fill-rule:nonzero;stroke:none;stroke-width:8.77578;stroke-linecap:butt;stroke-linejoin:miter;stroke-miterlimit:4;stroke-dasharray:none;stroke-dashoffset:0;stroke-opacity:1" />
  <circle
     style="vector-effect:none;fill:#b01b2f;fill-opacity:1;fill-rule:nonzero;stroke:none;stroke-width:8.77578;stroke-linecap:butt;stroke-linejoin:miter;stroke-miterlimit:4;stroke-dasharray:none;stroke-dashoffset:0;stroke-opacity:1"
     id="path836"
     cx="15.200311"
     cy="12.746052"
     r="5.6885414" />
  <g
     aria-label="bizikleteroak"
     id="text819"
     style="font-style:normal;font-weight:normal;font-size:10.5833px;line-height:1.25;font-family:sans-serif;letter-spacing:0px;word-spacing:0px;fill:#b01b2f;fill-opacity:1;stroke:none;stroke-width:0.264583">
    <path
       d="m 23.202023,8.6643308 v 3.2674232 q 0,0.217311 0.0078,0.380294 0.01552,0.162983 0.04657,0.302683 0.03104,0.131938 0.08537,0.248355 0.05433,0.116416 0.131939,0.240594 0.232833,0.372533 0.613127,0.582082 0.388055,0.20955 0.830438,0.20955 0.35701,0 0.667454,-0.131939 0.318205,-0.139699 0.551038,-0.372532 0.232833,-0.232833 0.364772,-0.543277 0.1397,-0.318206 0.1397,-0.675216 0,-0.34925 -0.131939,-0.651933 -0.131939,-0.310443 -0.357011,-0.543276 -0.225071,-0.232833 -0.527754,-0.364772 -0.302683,-0.1397 -0.644172,-0.1397 -0.209549,0 -0.395816,0.04657 -0.178505,0.04657 -0.42686,0.178505 V 8.6643308 Z m 1.722964,2.7163852 q 0.325966,0 0.543277,0.232833 0.225072,0.232833 0.225072,0.574321 0,0.162983 -0.06209,0.302683 -0.06209,0.1397 -0.170744,0.248355 -0.100895,0.108656 -0.240594,0.170744 -0.1397,0.06209 -0.294922,0.06209 -0.162983,0 -0.302683,-0.06209 -0.1397,-0.06209 -0.248355,-0.170744 -0.100895,-0.108655 -0.162983,-0.248355 -0.06209,-0.147461 -0.06209,-0.310444 0,-0.162983 0.06209,-0.310444 0.06209,-0.147461 0.162983,-0.256116 0.108655,-0.108656 0.248355,-0.170744 0.1397,-0.06209 0.302683,-0.06209 z"
       style="font-style:normal;font-variant:normal;font-weight:normal;font-stretch:normal;font-size:7.7611px;font-family:'Horatio D';-inkscape-font-specification:'Horatio D';stroke-width:0.264583;fill:#b01b2f;fill-opacity:1"
       id="path142" />
    <path
       d="m 28.138071,10.511473 h -0.946854 v 3.329511 h 0.946854 z M 27.6336,9.0911913 q -0.225072,0 -0.380294,0.155222 -0.147461,0.1474609 -0.147461,0.3725327 0,0.2250719 0.155222,0.3802939 0.155222,0.1552221 0.372533,0.1552221 0.217311,0 0.372533,-0.1552221 0.162983,-0.1629831 0.162983,-0.3802939 0,-0.2250718 -0.155222,-0.3725327 -0.155222,-0.155222 -0.380294,-0.155222 z"
       style="font-style:normal;font-variant:normal;font-weight:normal;font-stretch:normal;font-size:7.7611px;font-family:'Horatio D';-inkscape-font-specification:'Horatio D';stroke-width:0.264583;fill:#b01b2f;fill-opacity:1"
       id="path144" />
    <path
       d="m 31.289075,13.840984 v -0.884765 h -1.358193 l 1.12536,-1.303865 q 0.155222,-0.178505 0.20955,-0.294922 0.05433,-0.116416 0.05433,-0.248355 0,-0.147461 -0.06985,-0.271638 -0.06985,-0.131939 -0.194027,-0.20955 -0.06209,-0.0388 -0.116417,-0.06209 -0.04657,-0.02328 -0.116416,-0.03104 -0.06209,-0.01552 -0.155222,-0.01552 -0.09313,-0.0078 -0.232833,-0.0078 h -1.684159 v 0.877004 h 1.319387 l -1.102076,1.27282 q -0.201789,0.225072 -0.263877,0.357011 -0.06209,0.131938 -0.06209,0.279399 0,0.147461 0.06985,0.271639 0.07761,0.124177 0.194027,0.194027 0.08537,0.03881 0.194028,0.06209 0.108655,0.01552 0.294922,0.01552 z"
       style="font-style:normal;font-variant:normal;font-weight:normal;font-stretch:normal;font-size:7.7611px;font-family:'Horatio D';-inkscape-font-specification:'Horatio D';stroke-width:0.264583;fill:#b01b2f;fill-opacity:1"
       id="path146" />
    <path
       d="M 32.771434,10.511473 H 31.82458 v 3.329511 h 0.946854 z M 32.266963,9.0911913 q -0.225072,0 -0.380294,0.155222 -0.147461,0.1474609 -0.147461,0.3725327 0,0.2250719 0.155222,0.3802939 0.155222,0.1552221 0.372533,0.1552221 0.217311,0 0.372533,-0.1552221 0.162983,-0.1629831 0.162983,-0.3802939 0,-0.2250718 -0.155222,-0.3725327 -0.155222,-0.155222 -0.380294,-0.155222 z"
       style="font-style:normal;font-variant:normal;font-weight:normal;font-stretch:normal;font-size:7.7611px;font-family:'Horatio D';-inkscape-font-specification:'Horatio D';stroke-width:0.264583;fill:#b01b2f;fill-opacity:1"
       id="path148" />
    <path
       d="m 34.447829,8.6643308 h -0.946854 v 5.1766532 h 0.946854 z m 2.017886,1.8471422 h -1.102077 l -0.574321,0.915809 q -0.170744,0.263878 -0.240594,0.434622 -0.06209,0.162983 -0.06209,0.310444 0,0.06985 0,0.116416 0.0078,0.04657 0.03881,0.108656 0.03104,0.06209 0.09313,0.162983 0.06209,0.09313 0.170744,0.263877 l 0.675216,1.016704 h 1.171926 l -1.241776,-1.707442 z"
       style="font-style:normal;font-variant:normal;font-weight:normal;font-stretch:normal;font-size:7.7611px;font-family:'Horatio D';-inkscape-font-specification:'Horatio D';stroke-width:0.264583;fill:#b01b2f;fill-opacity:1"
       id="path150" />
    <path
       d="M 37.917029,13.840984 V 8.6643308 h -0.946854 v 5.1766532 z"
       style="font-style:normal;font-variant:normal;font-weight:normal;font-stretch:normal;font-size:7.7611px;font-family:'Horatio D';-inkscape-font-specification:'Horatio D';stroke-width:0.264583;fill:#b01b2f;fill-opacity:1"
       id="path152" />
    <path
       d="m 40.679977,12.762191 q -0.131938,0.131939 -0.256116,0.186267 -0.124178,0.05433 -0.2794,0.05433 -0.465666,0 -0.682976,-0.465666 h 1.606547 q 0.341489,0 0.543277,-0.155222 0.201789,-0.162984 0.201789,-0.426861 0,-0.287161 -0.1397,-0.551038 -0.131939,-0.271638 -0.364772,-0.473427 -0.232833,-0.201789 -0.535516,-0.325966 -0.294921,-0.124178 -0.620888,-0.124178 -0.349249,0 -0.659693,0.131939 -0.310444,0.131939 -0.535516,0.364772 -0.225072,0.225071 -0.35701,0.535515 -0.131939,0.302683 -0.131939,0.659694 0,0.35701 0.131939,0.667454 0.131938,0.310444 0.35701,0.543277 0.232833,0.232833 0.535516,0.364772 0.310444,0.131939 0.667455,0.131939 0.551038,0 0.970137,-0.294922 0.419099,-0.294922 0.620888,-0.822677 z M 39.43044,11.846382 q 0.08537,-0.225072 0.263878,-0.34925 0.186266,-0.131938 0.434621,-0.131938 0.481188,0 0.675216,0.481188 z"
       style="font-style:normal;font-variant:normal;font-weight:normal;font-stretch:normal;font-size:7.7611px;font-family:'Horatio D';-inkscape-font-specification:'Horatio D';stroke-width:0.264583;fill:#b01b2f;fill-opacity:1"
       id="path154" />
    <path
       d="m 42.589185,11.427282 v 0.574322 q 0,0.263877 0,0.42686 0.0078,0.162983 0.01552,0.271639 0.01552,0.100894 0.03104,0.170744 0.02328,0.06209 0.05433,0.1397 0.162983,0.403577 0.512233,0.620888 0.35701,0.21731 0.845959,0.21731 h 0.186267 v -0.892526 q -0.225072,0 -0.364772,-0.03881 -0.131939,-0.0388 -0.20955,-0.131938 -0.07761,-0.09313 -0.100894,-0.256117 -0.02328,-0.170744 -0.01552,-0.442382 v -0.659694 h 0.690738 V 10.511473 H 43.5438 V 9.3705909 h -0.954615 v 1.1408821 h -0.574322 v 0.915809 z"
       style="font-style:normal;font-variant:normal;font-weight:normal;font-stretch:normal;font-size:7.7611px;font-family:'Horatio D';-inkscape-font-specification:'Horatio D';stroke-width:0.264583;fill:#b01b2f;fill-opacity:1"
       id="path156" />
    <path
       d="m 46.795681,12.762191 q -0.131939,0.131939 -0.256116,0.186267 -0.124178,0.05433 -0.2794,0.05433 -0.465666,0 -0.682977,-0.465666 h 1.606548 q 0.341488,0 0.543277,-0.155222 0.201788,-0.162984 0.201788,-0.426861 0,-0.287161 -0.139699,-0.551038 -0.131939,-0.271638 -0.364772,-0.473427 -0.232833,-0.201789 -0.535516,-0.325966 -0.294922,-0.124178 -0.620888,-0.124178 -0.349249,0 -0.659693,0.131939 -0.310444,0.131939 -0.535516,0.364772 -0.225072,0.225071 -0.357011,0.535515 -0.131939,0.302683 -0.131939,0.659694 0,0.35701 0.131939,0.667454 0.131939,0.310444 0.357011,0.543277 0.232833,0.232833 0.535516,0.364772 0.310444,0.131939 0.667454,0.131939 0.551038,0 0.970138,-0.294922 0.419099,-0.294922 0.620888,-0.822677 z m -1.249537,-0.915809 q 0.08537,-0.225072 0.263877,-0.34925 0.186267,-0.131938 0.434622,-0.131938 0.481188,0 0.675215,0.481188 z"
       style="font-style:normal;font-variant:normal;font-weight:normal;font-stretch:normal;font-size:7.7611px;font-family:'Horatio D';-inkscape-font-specification:'Horatio D';stroke-width:0.264583;fill:#b01b2f;fill-opacity:1"
       id="path158" />
    <path
       d="m 49.387874,13.840984 v -1.90923 q 0,-0.302683 0.108655,-0.411339 0.116416,-0.116416 0.434622,-0.124177 h 0.116416 v -0.877004 q -0.05433,-0.0078 -0.100894,-0.0078 -0.03881,0 -0.05433,0 -0.946854,0 -1.311626,0.721782 -0.04657,0.08537 -0.07761,0.170744 -0.02328,0.07761 -0.0388,0.178505 -0.01552,0.09313 -0.02328,0.232833 0,0.131939 0,0.325966 v 1.699681 z"
       style="font-style:normal;font-variant:normal;font-weight:normal;font-stretch:normal;font-size:7.7611px;font-family:'Horatio D';-inkscape-font-specification:'Horatio D';stroke-width:0.264583;fill:#b01b2f;fill-opacity:1"
       id="path160" />
    <path
       d="m 52.057671,10.410578 q -0.372533,0 -0.698499,0.1397 -0.318205,0.1397 -0.5588,0.380294 -0.240594,0.240594 -0.380293,0.56656 -0.1397,0.318205 -0.1397,0.682977 0,0.364772 0.1397,0.690738 0.139699,0.318205 0.380293,0.558799 0.240595,0.232833 0.5588,0.372533 0.325966,0.1397 0.690738,0.1397 0.35701,0 0.675215,-0.1397 0.325966,-0.1397 0.566561,-0.372533 0.240594,-0.240594 0.380293,-0.551038 0.1397,-0.318205 0.1397,-0.675216 0,-0.372533 -0.1397,-0.698499 -0.131938,-0.325966 -0.372532,-0.56656 -0.240594,-0.248355 -0.5588,-0.388055 -0.318205,-0.1397 -0.682976,-0.1397 z m -0.0078,0.931332 q 0.162983,0 0.310444,0.06985 0.14746,0.06209 0.256116,0.178505 0.116416,0.116417 0.178505,0.271639 0.06209,0.155222 0.06209,0.325966 0,0.170744 -0.06209,0.325966 -0.06209,0.147461 -0.178505,0.263878 -0.108656,0.108655 -0.256116,0.178505 -0.147461,0.06209 -0.310444,0.06209 -0.170745,0 -0.318206,-0.06209 -0.14746,-0.06985 -0.263877,-0.178505 -0.108655,-0.116417 -0.170744,-0.263878 -0.06209,-0.155222 -0.06209,-0.333727 0,-0.170744 0.06209,-0.325966 0.06209,-0.155222 0.170744,-0.263878 0.116417,-0.116416 0.263877,-0.178505 0.147461,-0.06985 0.318206,-0.06985 z"
       style="font-style:normal;font-variant:normal;font-weight:normal;font-stretch:normal;font-size:7.7611px;font-family:'Horatio D';-inkscape-font-specification:'Horatio D';stroke-width:0.264583;fill:#b01b2f;fill-opacity:1"
       id="path162" />
    <path
       d="m 57.630127,13.840984 v -1.459086 q 0,-0.4191 -0.07761,-0.690738 -0.07761,-0.271639 -0.271638,-0.527755 -0.248356,-0.325966 -0.613127,-0.504472 -0.357011,-0.186266 -0.768349,-0.186266 -0.357011,0 -0.675216,0.1397 -0.310444,0.131939 -0.543277,0.364772 -0.232833,0.232833 -0.372533,0.543276 -0.131938,0.310444 -0.131938,0.659694 0,0.341488 0.131938,0.651932 0.131939,0.302683 0.34925,0.535516 0.225072,0.232833 0.512233,0.372533 0.294921,0.1397 0.620887,0.1397 0.225072,0 0.434622,-0.06985 0.20955,-0.07761 0.450144,-0.240594 v 0.271638 z m -1.730725,-2.444746 q 0.155222,0 0.294922,0.06209 0.139699,0.06209 0.240594,0.178505 0.108655,0.108655 0.170744,0.256116 0.06209,0.1397 0.06209,0.302683 0,0.162983 -0.06209,0.302683 -0.06209,0.1397 -0.170744,0.248355 -0.100895,0.108656 -0.240594,0.170744 -0.131939,0.06209 -0.287161,0.06209 -0.162983,0 -0.302683,-0.06209 -0.1397,-0.06209 -0.248355,-0.170744 -0.100894,-0.108655 -0.162983,-0.256116 -0.06209,-0.147461 -0.06209,-0.310444 0,-0.162983 0.05433,-0.302683 0.06209,-0.147461 0.162983,-0.248355 0.108655,-0.108656 0.248355,-0.170744 0.1397,-0.06209 0.302683,-0.06209 z"
       style="font-style:normal;font-variant:normal;font-weight:normal;font-stretch:normal;font-size:7.7611px;font-family:'Horatio D';-inkscape-font-specification:'Horatio D';stroke-width:0.264583;fill:#b01b2f;fill-opacity:1"
       id="path164" />
    <path
       d="m 59.267705,8.6643308 h -0.946854 v 5.1766532 h 0.946854 z m 2.017886,1.8471422 h -1.102076 l -0.574321,0.915809 q -0.170744,0.263878 -0.240594,0.434622 -0.06209,0.162983 -0.06209,0.310444 0,0.06985 0,0.116416 0.0078,0.04657 0.0388,0.108656 0.03105,0.06209 0.09313,0.162983 0.06209,0.09313 0.170744,0.263877 l 0.675215,1.016704 h 1.171926 L 60.21456,12.133542 Z"
       style="font-style:normal;font-variant:normal;font-weight:normal;font-stretch:normal;font-size:7.7611px;font-family:'Horatio D';-inkscape-font-specification:'Horatio D';stroke-width:0.264583;fill:#b01b2f;fill-opacity:1"
       id="path166" />
  </g>
  <g
     aria-label=".org"
     id="text823"
     style="font-style:normal;font-weight:normal;font-size:10.5833px;line-height:1.25;font-family:sans-serif;letter-spacing:0px;word-spacing:0px;fill:#ffffff;fill-opacity:1;stroke:#b01b2f;stroke-width:0.264583;stroke-opacity:1">
    <path
       d="m 62.526511,12.74561 q -0.2794,0 -0.474133,0.194733 -0.194734,0.194734 -0.194734,0.474134 0,0.270933 0.194734,0.465667 0.194733,0.194733 0.465667,0.194733 0.270933,0 0.465667,-0.194733 0.2032,-0.194734 0.2032,-0.465667 0,-0.2794 -0.194734,-0.474134 -0.186267,-0.194733 -0.465667,-0.194733 z"
       style="font-style:normal;font-variant:normal;font-weight:normal;font-stretch:normal;font-size:8.46667px;font-family:'Horatio D';-inkscape-font-specification:'Horatio D';letter-spacing:-0.259292px;fill:#ffffff;stroke:#b01b2f;stroke-width:0.264583;stroke-opacity:1;fill-opacity:1"
       id="path169" />
    <path
       d="m 65.49302,10.247942 q -0.4064,0 -0.762,0.1524 -0.347134,0.1524 -0.6096,0.414867 -0.262467,0.262467 -0.414867,0.618067 -0.1524,0.347134 -0.1524,0.745067 0,0.397934 0.1524,0.753534 0.1524,0.347133 0.414867,0.6096 0.262466,0.254 0.6096,0.4064 0.3556,0.1524 0.753534,0.1524 0.389466,0 0.7366,-0.1524 0.3556,-0.1524 0.618067,-0.4064 0.262467,-0.262467 0.414867,-0.601134 0.1524,-0.347133 0.1524,-0.7366 0,-0.4064 -0.1524,-0.762 -0.143934,-0.3556 -0.406401,-0.618067 -0.262466,-0.270934 -0.6096,-0.423334 -0.347133,-0.1524 -0.745067,-0.1524 z m -0.0085,1.016001 q 0.1778,0 0.338666,0.0762 0.160867,0.06773 0.279401,0.194733 0.127,0.127 0.194733,0.296334 0.06773,0.169333 0.06773,0.3556 0,0.186267 -0.06773,0.3556 -0.06773,0.160867 -0.194733,0.287867 -0.118534,0.118533 -0.279401,0.194733 -0.160866,0.06773 -0.338666,0.06773 -0.186267,0 -0.347134,-0.06773 -0.160867,-0.0762 -0.287867,-0.194733 -0.118533,-0.127 -0.186266,-0.287867 -0.06773,-0.169333 -0.06773,-0.364067 0,-0.186267 0.06773,-0.3556 0.06773,-0.169333 0.186266,-0.287867 0.127,-0.127 0.287867,-0.194733 0.160867,-0.0762 0.347134,-0.0762 z"
       style="font-style:normal;font-variant:normal;font-weight:normal;font-stretch:normal;font-size:8.46667px;font-family:'Horatio D';-inkscape-font-specification:'Horatio D';letter-spacing:-0.259292px;fill:#ffffff;stroke:#b01b2f;stroke-width:0.264583;stroke-opacity:1;fill-opacity:1"
       id="path171" />
    <path
       d="M 68.738916,13.990211 V 11.90741 q 0,-0.3302 0.118533,-0.448734 0.127,-0.127 0.474134,-0.135467 h 0.127 v -0.956733 q -0.05927,-0.0085 -0.110067,-0.0085 -0.04233,0 -0.05927,0 -1.032933,0 -1.430867,0.7874 -0.0508,0.09313 -0.08467,0.186267 -0.0254,0.08467 -0.04233,0.194734 -0.01693,0.1016 -0.0254,0.254 0,0.143933 0,0.3556 v 1.854201 z"
       style="font-style:normal;font-variant:normal;font-weight:normal;font-stretch:normal;font-size:8.46667px;font-family:'Horatio D';-inkscape-font-specification:'Horatio D';letter-spacing:-0.259292px;fill:#ffffff;stroke:#b01b2f;stroke-width:0.264583;stroke-opacity:1;fill-opacity:1"
       id="path173" />
    <path
       d="m 69.580265,14.337344 q 0.04233,0.270933 0.08467,0.423334 0.04233,0.160866 0.110067,0.3048 0.220133,0.448733 0.668867,0.719667 0.448733,0.270933 0.982133,0.270933 0.4318,0 0.804334,-0.186267 0.381,-0.186266 0.643467,-0.516467 0.110067,-0.135466 0.1778,-0.2794 0.0762,-0.135466 0.118533,-0.3048 0.04233,-0.160867 0.05927,-0.372533 0.01693,-0.211667 0.01693,-0.491067 v -1.600201 q 0,-0.397933 -0.08467,-0.677333 -0.0762,-0.287867 -0.270934,-0.550334 -0.262467,-0.372533 -0.6604,-0.575734 -0.397934,-0.2032 -0.855134,-0.2032 -0.397933,0 -0.745067,0.1524 -0.338667,0.143934 -0.592667,0.397934 -0.254,0.254 -0.4064,0.592667 -0.143933,0.338667 -0.143933,0.728133 0,0.381001 0.143933,0.719667 0.143934,0.338667 0.389467,0.592667 0.245533,0.245534 0.567267,0.397934 0.3302,0.143933 0.702734,0.143933 0.118533,0 0.220133,-0.01693 0.1016,-0.0085 0.2032,-0.04233 0.110067,-0.03387 0.2286,-0.09313 0.118534,-0.05927 0.270934,-0.1524 v 0.321734 q 0,0.508 -0.203201,0.778933 -0.194733,0.270934 -0.567266,0.270934 -0.321734,0 -0.541867,-0.194734 -0.211667,-0.194733 -0.287867,-0.5588 z m 1.794934,-3.031068 q 0.3556,0 0.592667,0.254 0.237067,0.245534 0.237067,0.626534 0,0.3556 -0.245534,0.601133 -0.237066,0.245534 -0.592666,0.245534 -0.177801,0 -0.330201,-0.06773 -0.1524,-0.06773 -0.270933,-0.1778 -0.110067,-0.118533 -0.1778,-0.2794 -0.05927,-0.160866 -0.05927,-0.338667 0,-0.1778 0.05927,-0.338666 0.06773,-0.160867 0.1778,-0.270934 0.118533,-0.118533 0.270933,-0.186267 0.160867,-0.06773 0.338667,-0.06773 z"
       style="font-style:normal;font-variant:normal;font-weight:normal;font-stretch:normal;font-size:8.46667px;font-family:'Horatio D';-inkscape-font-specification:'Horatio D';letter-spacing:-0.259292px;fill:#ffffff;stroke:#b01b2f;stroke-width:0.264583;stroke-opacity:1;fill-opacity:1"
       id="path175" />
  </g>
  <ellipse
     style="vector-effect:none;fill:#000000;fill-opacity:1;fill-rule:nonzero;stroke:none;stroke-width:8.465;stroke-linecap:butt;stroke-linejoin:miter;stroke-miterlimit:4;stroke-dasharray:none;stroke-dashoffset:0;stroke-opacity:1"
     id="path842"
     cx="15.491629"
     cy="13.449818"
     rx="1.5639066"
     ry="1.4335809" />
  <circle
     style="vector-effect:none;fill:none;fill-opacity:1;fill-rule:nonzero;stroke:#b01b2f;stroke-width:0.264583;stroke-linecap:butt;stroke-linejoin:miter;stroke-miterlimit:4;stroke-dasharray:none;stroke-dashoffset:0;stroke-opacity:1"
     id="path844"
     cx="17.747952"
     cy="5.1645961"
     r="5.0323048" />
  <g
     aria-label="b"
     id="text840"
     style="font-style:normal;font-weight:normal;font-size:10.5833px;line-height:1.25;font-family:sans-serif;letter-spacing:0px;word-spacing:0px;fill:#ffffff;fill-opacity:1;stroke:none;stroke-width:0.264583">
    <path
       d="m 13.089344,8.606291 v 4.455569 q 0,0.296333 0.01058,0.518582 0.02117,0.222249 0.0635,0.412749 0.04233,0.179916 0.116417,0.338665 0.07408,0.15875 0.179916,0.328082 0.317499,0.507999 0.836081,0.793748 0.529165,0.285749 1.132413,0.285749 0.486831,0 0.910163,-0.179916 0.433916,-0.1905 0.751415,-0.507999 0.317499,-0.317499 0.497415,-0.74083 0.190499,-0.433916 0.190499,-0.920748 0,-0.476248 -0.179916,-0.888997 Q 17.417914,12.077613 17.110998,11.760114 16.804083,11.442615 16.391334,11.262699 15.978585,11.0722 15.51292,11.0722 q -0.285749,0 -0.539748,0.0635 -0.243416,0.0635 -0.582082,0.243416 V 8.606291 Z m 2.349493,3.704155 q 0.444498,0 0.740831,0.317499 0.306916,0.317499 0.306916,0.783164 0,0.222249 -0.08467,0.412749 -0.08467,0.190499 -0.232832,0.338665 -0.137583,0.148167 -0.328083,0.232833 -0.190499,0.08467 -0.402165,0.08467 -0.222249,0 -0.412749,-0.08467 -0.190499,-0.08467 -0.338665,-0.232833 -0.137583,-0.148166 -0.22225,-0.338665 -0.08467,-0.201083 -0.08467,-0.423332 0,-0.22225 0.08467,-0.423332 0.08467,-0.201083 0.22225,-0.349249 0.148166,-0.148166 0.338665,-0.232833 0.1905,-0.08467 0.412749,-0.08467 z"
       style="font-style:normal;font-variant:normal;font-weight:normal;font-stretch:normal;font-family:'Horatio D';-inkscape-font-specification:'Horatio D';fill:#ffffff;fill-opacity:1;stroke-width:0.264583"
       id="path178" />
  </g>
  <circle
     style="vector-effect:none;fill:none;fill-opacity:1;fill-rule:nonzero;stroke:#b01b2f;stroke-width:0.264583;stroke-linecap:butt;stroke-linejoin:miter;stroke-miterlimit:4;stroke-dasharray:none;stroke-dashoffset:0;stroke-opacity:1"
     id="path844-1"
     cx="10.905749"
     cy="15.406041"
     r="8.3350639" />
  <circle
     style="vector-effect:none;fill:none;fill-opacity:1;fill-rule:nonzero;stroke:#b01b2f;stroke-width:0.264583;stroke-linecap:butt;stroke-linejoin:miter;stroke-miterlimit:4;stroke-dasharray:none;stroke-dashoffset:0;stroke-opacity:1"
     id="path844-1-2"
     cx="2.7367871"
     cy="18.254797"
     r="2.6044955" />
  <g
     aria-label="ciclistas urbanos "
     id="text852"
     style="font-style:normal;font-weight:normal;font-size:12px;line-height:1.25;font-family:sans-serif;letter-spacing:0px;word-spacing:0px;fill:#b01b2f;fill-opacity:1;stroke:none"
     transform="matrix(0.26458333,0,0,0.26458333,-0.25169489,-1.9983426)">
    <path
       d="m 91.04789,73.801689 q 0.515625,0 0.826172,-0.316406 0.310546,-0.322266 0.339843,-0.914063 h 0.978516 q -0.03516,0.914063 -0.650391,1.517579 -0.609375,0.597656 -1.49414,0.597656 -1.177735,0 -1.798828,-0.738281 -0.615235,-0.744141 -0.615235,-2.208985 v -0.697265 q 0,-1.435547 0.615235,-2.179688 0.615234,-0.75 1.792968,-0.75 0.972657,0 1.541016,0.615234 0.574219,0.615235 0.609375,1.681641 h -0.978516 q -0.03516,-0.703125 -0.339843,-1.054687 -0.298829,-0.351563 -0.832032,-0.351563 -0.691406,0 -1.02539,0.457031 -0.333985,0.451172 -0.345703,1.488282 v 0.808593 q 0,1.119141 0.328125,1.582032 0.333984,0.46289 1.048828,0.46289 z"
       style="font-style:normal;font-variant:normal;font-weight:normal;font-stretch:normal;font-size:12px;font-family:'Roboto Condensed';-inkscape-font-specification:'Roboto Condensed, ';fill:#b01b2f;fill-opacity:1"
       id="path878" />
    <path
       d="m 95.506874,74.569267 h -1.037109 v -6.339843 h 1.037109 z m 0.08203,-8.021484 q 0,0.263672 -0.146484,0.439453 -0.146484,0.175781 -0.445313,0.175781 -0.292968,0 -0.439453,-0.175781 -0.146484,-0.175781 -0.146484,-0.439453 0,-0.263672 0.146484,-0.445313 0.146485,-0.18164 0.439453,-0.18164 0.292969,0 0.439454,0.1875 0.152343,0.18164 0.152343,0.439453 z"
       style="font-style:normal;font-variant:normal;font-weight:normal;font-stretch:normal;font-size:12px;font-family:'Roboto Condensed';-inkscape-font-specification:'Roboto Condensed, ';fill:#b01b2f;fill-opacity:1"
       id="path880" />
    <path
       d="m 99.338905,73.801689 q 0.515625,0 0.826175,-0.316406 0.31054,-0.322266 0.33984,-0.914063 h 0.97852 q -0.0352,0.914063 -0.65039,1.517579 -0.60938,0.597656 -1.494145,0.597656 -1.177734,0 -1.798828,-0.738281 -0.615234,-0.744141 -0.615234,-2.208985 v -0.697265 q 0,-1.435547 0.615234,-2.179688 0.615235,-0.75 1.792969,-0.75 0.972654,0 1.541014,0.615234 0.57422,0.615235 0.60938,1.681641 h -0.97852 q -0.0352,-0.703125 -0.33984,-1.054687 -0.298831,-0.351563 -0.832034,-0.351563 -0.691406,0 -1.025391,0.457031 -0.333984,0.451172 -0.345703,1.488282 v 0.808593 q 0,1.119141 0.328125,1.582032 0.333985,0.46289 1.048828,0.46289 z"
       style="font-style:normal;font-variant:normal;font-weight:normal;font-stretch:normal;font-size:12px;font-family:'Roboto Condensed';-inkscape-font-specification:'Roboto Condensed, ';fill:#b01b2f;fill-opacity:1"
       id="path882" />
    <path
       d="m 103.79789,74.569267 h -1.03711 v -9 h 1.03711 z"
       style="font-style:normal;font-variant:normal;font-weight:normal;font-stretch:normal;font-size:12px;font-family:'Roboto Condensed';-inkscape-font-specification:'Roboto Condensed, ';fill:#b01b2f;fill-opacity:1"
       id="path884" />
    <path
       d="m 106.54594,74.569267 h -1.03711 v -6.339843 h 1.03711 z m 0.082,-8.021484 q 0,0.263672 -0.14649,0.439453 -0.14648,0.175781 -0.44531,0.175781 -0.29297,0 -0.43945,-0.175781 -0.14649,-0.175781 -0.14649,-0.439453 0,-0.263672 0.14649,-0.445313 0.14648,-0.18164 0.43945,-0.18164 0.29297,0 0.43945,0.1875 0.15235,0.18164 0.15235,0.439453 z"
       style="font-style:normal;font-variant:normal;font-weight:normal;font-stretch:normal;font-size:12px;font-family:'Roboto Condensed';-inkscape-font-specification:'Roboto Condensed, ';fill:#b01b2f;fill-opacity:1"
       id="path886" />
    <path
       d="m 111.25687,72.94622 q 0,-0.333984 -0.25195,-0.574218 -0.25195,-0.240235 -0.97266,-0.5625 -0.83789,-0.345703 -1.18359,-0.591797 -0.33984,-0.246094 -0.50976,-0.556641 -0.16993,-0.316406 -0.16993,-0.75 0,-0.773437 0.5625,-1.283203 0.56836,-0.515625 1.44727,-0.515625 0.92578,0 1.48828,0.539063 0.5625,0.539062 0.5625,1.382812 h -1.03125 q 0,-0.427734 -0.28711,-0.726562 -0.28711,-0.304688 -0.73242,-0.304688 -0.45703,0 -0.7207,0.240234 -0.25782,0.234375 -0.25782,0.632813 0,0.316406 0.1875,0.509766 0.19336,0.193359 0.91993,0.509765 1.15429,0.451172 1.57031,0.884766 0.41601,0.427734 0.41601,1.089844 0,0.826171 -0.56836,1.324218 -0.56836,0.492188 -1.52343,0.492188 -0.99024,0 -1.60547,-0.56836 -0.61524,-0.568359 -0.61524,-1.441406 h 1.04297 q 0.0176,0.527344 0.32227,0.826172 0.30469,0.298828 0.85547,0.298828 0.51562,0 0.78515,-0.228515 0.26953,-0.234375 0.26953,-0.626954 z"
       style="font-style:normal;font-variant:normal;font-weight:normal;font-stretch:normal;font-size:12px;font-family:'Roboto Condensed';-inkscape-font-specification:'Roboto Condensed, ';fill:#b01b2f;fill-opacity:1"
       id="path888" />
    <path
       d="m 115.00101,66.694267 v 1.535157 h 0.95508 v 0.83789 h -0.95508 v 3.931641 q 0,0.375 0.12305,0.568359 0.12305,0.19336 0.42188,0.19336 0.20507,0 0.41601,-0.07031 l -0.0117,0.878906 q -0.35156,0.117188 -0.7207,0.117188 -0.61523,0 -0.9375,-0.439453 -0.32227,-0.439453 -0.32227,-1.242188 v -3.9375 h -0.96679 v -0.83789 h 0.96679 V 66.69427 Z"
       style="font-style:normal;font-variant:normal;font-weight:normal;font-stretch:normal;font-size:12px;font-family:'Roboto Condensed';-inkscape-font-specification:'Roboto Condensed, ';fill:#b01b2f;fill-opacity:1"
       id="path890" />
    <path
       d="m 120.45023,74.569267 q -0.0937,-0.205078 -0.13476,-0.691406 -0.55078,0.808594 -1.40625,0.808594 -0.86133,0 -1.34766,-0.480469 -0.48047,-0.486328 -0.48047,-1.365234 0,-0.966797 0.65625,-1.535157 0.65625,-0.568359 1.79883,-0.580078 h 0.76172 v -0.673828 q 0,-0.568359 -0.25195,-0.808594 -0.25196,-0.240234 -0.76758,-0.240234 -0.46875,0 -0.76172,0.28125 -0.29297,0.275391 -0.29297,0.703125 h -1.03711 q 0,-0.486328 0.28711,-0.925781 0.28711,-0.445313 0.77344,-0.697266 0.48633,-0.251953 1.08398,-0.251953 0.97266,0 1.47657,0.486328 0.50976,0.480469 0.52148,1.40625 v 3.199219 q 0.006,0.732422 0.19922,1.271484 v 0.09375 z m -1.38281,-0.826172 q 0.38086,0 0.72656,-0.210937 0.34571,-0.210938 0.50391,-0.527344 v -1.511719 h -0.58594 q -0.73828,0.01172 -1.16601,0.333985 -0.42774,0.316406 -0.42774,0.890625 0,0.539062 0.2168,0.785156 0.2168,0.240234 0.73242,0.240234 z"
       style="font-style:normal;font-variant:normal;font-weight:normal;font-stretch:normal;font-size:12px;font-family:'Roboto Condensed';-inkscape-font-specification:'Roboto Condensed, ';fill:#b01b2f;fill-opacity:1"
       id="path892" />
    <path
       d="m 126.01664,72.94622 q 0,-0.333984 -0.25195,-0.574218 -0.25196,-0.240235 -0.97266,-0.5625 -0.83789,-0.345703 -1.18359,-0.591797 -0.33985,-0.246094 -0.50977,-0.556641 -0.16992,-0.316406 -0.16992,-0.75 0,-0.773437 0.5625,-1.283203 0.56836,-0.515625 1.44726,-0.515625 0.92579,0 1.48829,0.539063 0.5625,0.539062 0.5625,1.382812 h -1.03125 q 0,-0.427734 -0.28711,-0.726562 -0.28711,-0.304688 -0.73243,-0.304688 -0.45703,0 -0.7207,0.240234 -0.25781,0.234375 -0.25781,0.632813 0,0.316406 0.1875,0.509766 0.19336,0.193359 0.91992,0.509765 1.1543,0.451172 1.57031,0.884766 0.41602,0.427734 0.41602,1.089844 0,0.826171 -0.56836,1.324218 -0.56836,0.492188 -1.52344,0.492188 -0.99023,0 -1.60547,-0.56836 -0.61523,-0.568359 -0.61523,-1.441406 h 1.04297 q 0.0176,0.527344 0.32226,0.826172 0.30469,0.298828 0.85547,0.298828 0.51563,0 0.78516,-0.228515 0.26953,-0.234375 0.26953,-0.626954 z"
       style="font-style:normal;font-variant:normal;font-weight:normal;font-stretch:normal;font-size:12px;font-family:'Roboto Condensed';-inkscape-font-specification:'Roboto Condensed, ';fill:#b01b2f;fill-opacity:1"
       id="path894" />
    <path
       d="m 134.38383,74.012627 q -0.51563,0.673828 -1.50586,0.673828 -0.86133,0 -1.30078,-0.591797 -0.43946,-0.597656 -0.44532,-1.734375 v -4.130859 h 1.03125 v 4.054687 q 0,1.482422 0.89063,1.482422 0.94336,0 1.30078,-0.84375 v -4.693359 h 1.03711 v 6.339843 h -0.98438 z"
       style="font-style:normal;font-variant:normal;font-weight:normal;font-stretch:normal;font-size:12px;font-family:'Roboto Condensed';-inkscape-font-specification:'Roboto Condensed, ';fill:#b01b2f;fill-opacity:1"
       id="path896" />
    <path
       d="m 139.56937,69.20208 q -0.21679,-0.04102 -0.46875,-0.04102 -0.79687,0 -1.11328,0.873047 v 4.535156 h -1.03711 V 68.22942 h 1.00782 l 0.0176,0.644531 q 0.41602,-0.761719 1.17774,-0.761719 0.24609,0 0.41015,0.08203 z"
       style="font-style:normal;font-variant:normal;font-weight:normal;font-stretch:normal;font-size:12px;font-family:'Roboto Condensed';-inkscape-font-specification:'Roboto Condensed, ';fill:#b01b2f;fill-opacity:1"
       id="path898" />
    <path
       d="m 145.19437,71.704033 q 0,1.482422 -0.5332,2.232422 -0.5332,0.75 -1.54687,0.75 -1.00782,0 -1.51172,-0.867188 l -0.0527,0.75 h -0.94336 v -9 h 1.03125 v 3.357422 q 0.50977,-0.814453 1.46485,-0.814453 1.04297,0 1.56445,0.738281 0.52148,0.738282 0.52734,2.226563 z m -1.03125,-0.591797 q 0,-1.125 -0.3164,-1.599609 -0.31055,-0.480469 -1.01367,-0.480469 -0.80274,0 -1.19532,0.867187 v 3.017579 q 0.38672,0.855468 1.20703,0.855468 0.70313,0 1.00782,-0.492187 0.30468,-0.492188 0.31054,-1.529297 z"
       style="font-style:normal;font-variant:normal;font-weight:normal;font-stretch:normal;font-size:12px;font-family:'Roboto Condensed';-inkscape-font-specification:'Roboto Condensed, ';fill:#b01b2f;fill-opacity:1"
       id="path900" />
    <path
       d="m 149.78226,74.569267 q -0.0937,-0.205078 -0.13476,-0.691406 -0.55078,0.808594 -1.40625,0.808594 -0.86133,0 -1.34766,-0.480469 -0.48047,-0.486328 -0.48047,-1.365234 0,-0.966797 0.65625,-1.535157 0.65625,-0.568359 1.79883,-0.580078 h 0.76172 v -0.673828 q 0,-0.568359 -0.25195,-0.808594 -0.25196,-0.240234 -0.76758,-0.240234 -0.46875,0 -0.76172,0.28125 -0.29297,0.275391 -0.29297,0.703125 h -1.03711 q 0,-0.486328 0.28711,-0.925781 0.28711,-0.445313 0.77344,-0.697266 0.48633,-0.251953 1.08398,-0.251953 0.97266,0 1.47657,0.486328 0.50976,0.480469 0.52148,1.40625 v 3.199219 q 0.006,0.732422 0.19922,1.271484 v 0.09375 z m -1.38281,-0.826172 q 0.38086,0 0.72656,-0.210937 0.34571,-0.210938 0.50391,-0.527344 v -1.511719 h -0.58594 q -0.73828,0.01172 -1.16601,0.333985 -0.42774,0.316406 -0.42774,0.890625 0,0.539062 0.2168,0.785156 0.2168,0.240234 0.73242,0.240234 z"
       style="font-style:normal;font-variant:normal;font-weight:normal;font-stretch:normal;font-size:12px;font-family:'Roboto Condensed';-inkscape-font-specification:'Roboto Condensed, ';fill:#b01b2f;fill-opacity:1"
       id="path902" />
    <path
       d="m 153.24516,68.229424 0.0293,0.685546 q 0.60352,-0.802734 1.54102,-0.802734 1.68164,0 1.70508,2.244141 v 4.21289 h -1.03125 v -4.166015 q 0,-0.744141 -0.25196,-1.054688 -0.24609,-0.316406 -0.74414,-0.316406 -0.38672,0 -0.69726,0.257812 -0.30469,0.257813 -0.49219,0.673829 v 4.605468 h -1.03711 v -6.339843 z"
       style="font-style:normal;font-variant:normal;font-weight:normal;font-stretch:normal;font-size:12px;font-family:'Roboto Condensed';-inkscape-font-specification:'Roboto Condensed, ';fill:#b01b2f;fill-opacity:1"
       id="path904" />
    <path
       d="m 157.85648,71.106377 q 0,-1.382813 0.66797,-2.185547 0.67383,-0.808594 1.77539,-0.808594 1.10157,0 1.76953,0.785156 0.67383,0.785157 0.69141,2.138672 v 0.667969 q 0,1.376953 -0.66797,2.179687 -0.66797,0.802735 -1.78125,0.802735 -1.10156,0 -1.76953,-0.779297 -0.66211,-0.779297 -0.68555,-2.109375 z m 1.03711,0.597656 q 0,0.978516 0.38086,1.541016 0.38672,0.55664 1.03711,0.55664 1.3711,0 1.41211,-1.980469 v -0.714843 q 0,-0.972657 -0.38672,-1.535157 -0.38672,-0.568359 -1.03711,-0.568359 -0.63867,0 -1.02539,0.568359 -0.38086,0.5625 -0.38086,1.529297 z"
       style="font-style:normal;font-variant:normal;font-weight:normal;font-stretch:normal;font-size:12px;font-family:'Roboto Condensed';-inkscape-font-specification:'Roboto Condensed, ';fill:#b01b2f;fill-opacity:1"
       id="path906" />
    <path
       d="m 167.17875,72.94622 q 0,-0.333984 -0.25195,-0.574218 -0.25196,-0.240235 -0.97266,-0.5625 -0.83789,-0.345703 -1.18359,-0.591797 -0.33985,-0.246094 -0.50977,-0.556641 -0.16992,-0.316406 -0.16992,-0.75 0,-0.773437 0.5625,-1.283203 0.56836,-0.515625 1.44726,-0.515625 0.92579,0 1.48829,0.539063 0.5625,0.539062 0.5625,1.382812 h -1.03125 q 0,-0.427734 -0.28711,-0.726562 -0.28711,-0.304688 -0.73243,-0.304688 -0.45703,0 -0.7207,0.240234 -0.25781,0.234375 -0.25781,0.632813 0,0.316406 0.1875,0.509766 0.19336,0.193359 0.91992,0.509765 1.1543,0.451172 1.57031,0.884766 0.41602,0.427734 0.41602,1.089844 0,0.826171 -0.56836,1.324218 -0.56836,0.492188 -1.52344,0.492188 -0.99023,0 -1.60547,-0.56836 -0.61523,-0.568359 -0.61523,-1.441406 h 1.04297 q 0.0176,0.527344 0.32226,0.826172 0.30469,0.298828 0.85547,0.298828 0.51563,0 0.78516,-0.228515 0.26953,-0.234375 0.26953,-0.626954 z"
       style="font-style:normal;font-variant:normal;font-weight:normal;font-stretch:normal;font-size:12px;font-family:'Roboto Condensed';-inkscape-font-specification:'Roboto Condensed, ';fill:#b01b2f;fill-opacity:1"
       id="path908" />
  </g>
  <g
     aria-label="vitoria gasteiz"
     id="text852-7"
     style="font-style:normal;font-weight:normal;font-size:12px;line-height:1.25;font-family:sans-serif;letter-spacing:0px;word-spacing:0px;fill:#ffffff;fill-opacity:1;stroke:none"
     transform="matrix(0.26458333,0,0,0.26458333,-0.07097125,-1.9553496)">
    <path
       d="m 170.97794,72.817314 1.20117,-4.763672 h 1.05469 l -1.88086,6.339844 h -0.77344 l -1.9043,-6.339844 h 1.05469 z"
       style="font-style:normal;font-variant:normal;font-weight:normal;font-stretch:normal;font-size:12px;font-family:'Roboto Condensed';-inkscape-font-specification:'Roboto Condensed, ';fill:#ffffff;fill-opacity:1"
       id="path911" />
    <path
       d="m 175.43106,74.393486 h -1.03711 v -6.339844 h 1.03711 z m 0.082,-8.021484 q 0,0.263672 -0.14648,0.439453 -0.14649,0.175781 -0.44531,0.175781 -0.29297,0 -0.43946,-0.175781 -0.14648,-0.175781 -0.14648,-0.439453 0,-0.263672 0.14648,-0.445313 0.14649,-0.18164 0.43946,-0.18164 0.29296,0 0.43945,0.1875 0.15234,0.18164 0.15234,0.439453 z"
       style="font-style:normal;font-variant:normal;font-weight:normal;font-stretch:normal;font-size:12px;font-family:'Roboto Condensed';-inkscape-font-specification:'Roboto Condensed, ';fill:#ffffff;fill-opacity:1"
       id="path913" />
    <path
       d="m 178.41934,66.518486 v 1.535156 h 0.95508 v 0.837891 h -0.95508 v 3.931641 q 0,0.375 0.12305,0.568359 0.12305,0.193359 0.42187,0.193359 0.20508,0 0.41602,-0.07031 l -0.0117,0.878906 q -0.35156,0.117188 -0.7207,0.117188 -0.61524,0 -0.9375,-0.439454 -0.32227,-0.439453 -0.32227,-1.242187 v -3.9375 h -0.96679 v -0.837891 h 0.96679 v -1.535156 z"
       style="font-style:normal;font-variant:normal;font-weight:normal;font-stretch:normal;font-size:12px;font-family:'Roboto Condensed';-inkscape-font-specification:'Roboto Condensed, ';fill:#ffffff;fill-opacity:1"
       id="path915" />
    <path
       d="m 180.2709,70.930595 q 0,-1.382812 0.66797,-2.185546 0.67383,-0.808594 1.77539,-0.808594 1.10157,0 1.76954,0.785156 0.67382,0.785156 0.6914,2.138672 v 0.667969 q 0,1.376953 -0.66797,2.179687 -0.66797,0.802735 -1.78125,0.802735 -1.10156,0 -1.76953,-0.779297 -0.66211,-0.779297 -0.68555,-2.109375 z m 1.03711,0.597657 q 0,0.978515 0.38086,1.541015 0.38672,0.556641 1.03711,0.556641 1.3711,0 1.41211,-1.980469 v -0.714844 q 0,-0.972656 -0.38672,-1.535156 -0.38672,-0.568359 -1.03711,-0.568359 -0.63867,0 -1.02539,0.568359 -0.38086,0.5625 -0.38086,1.529297 z"
       style="font-style:normal;font-variant:normal;font-weight:normal;font-stretch:normal;font-size:12px;font-family:'Roboto Condensed';-inkscape-font-specification:'Roboto Condensed, ';fill:#ffffff;fill-opacity:1"
       id="path917" />
    <path
       d="m 189.13028,69.026299 q -0.2168,-0.04102 -0.46875,-0.04102 -0.79688,0 -1.11328,0.873047 v 4.535156 h -1.03711 v -6.339844 h 1.00781 l 0.0176,0.644532 q 0.41602,-0.761719 1.17773,-0.761719 0.2461,0 0.41016,0.08203 z"
       style="font-style:normal;font-variant:normal;font-weight:normal;font-stretch:normal;font-size:12px;font-family:'Roboto Condensed';-inkscape-font-specification:'Roboto Condensed, ';fill:#ffffff;fill-opacity:1"
       id="path919" />
    <path
       d="m 191.28067,74.393486 h -1.03711 v -6.339844 h 1.03711 z m 0.082,-8.021484 q 0,0.263672 -0.14648,0.439453 -0.14649,0.175781 -0.44532,0.175781 -0.29296,0 -0.43945,-0.175781 -0.14648,-0.175781 -0.14648,-0.439453 0,-0.263672 0.14648,-0.445313 0.14649,-0.18164 0.43945,-0.18164 0.29297,0 0.43946,0.1875 0.15234,0.18164 0.15234,0.439453 z"
       style="font-style:normal;font-variant:normal;font-weight:normal;font-stretch:normal;font-size:12px;font-family:'Roboto Condensed';-inkscape-font-specification:'Roboto Condensed, ';fill:#ffffff;fill-opacity:1"
       id="path921" />
    <path
       d="m 196.17325,74.393486 q -0.0937,-0.205078 -0.13477,-0.691406 -0.55078,0.808594 -1.40625,0.808594 -0.86133,0 -1.34765,-0.480469 -0.48047,-0.486328 -0.48047,-1.365235 0,-0.966796 0.65625,-1.535156 0.65625,-0.568359 1.79883,-0.580078 h 0.76171 v -0.673828 q 0,-0.568359 -0.25195,-0.808594 -0.25195,-0.240234 -0.76758,-0.240234 -0.46875,0 -0.76172,0.28125 -0.29296,0.27539 -0.29296,0.703125 h -1.03711 q 0,-0.486328 0.28711,-0.925781 0.28711,-0.445313 0.77343,-0.697266 0.48633,-0.251953 1.08399,-0.251953 0.97265,0 1.47656,0.486328 0.50977,0.480469 0.52148,1.40625 v 3.199219 q 0.006,0.732422 0.19922,1.271484 v 0.09375 z m -1.38281,-0.826172 q 0.38086,0 0.72656,-0.210937 0.3457,-0.210938 0.5039,-0.527344 v -1.511719 h -0.58593 q -0.73828,0.01172 -1.16602,0.333985 -0.42773,0.316406 -0.42773,0.890625 0,0.539062 0.21679,0.785156 0.2168,0.240234 0.73243,0.240234 z"
       style="font-style:normal;font-variant:normal;font-weight:normal;font-stretch:normal;font-size:12px;font-family:'Roboto Condensed';-inkscape-font-specification:'Roboto Condensed, ';fill:#ffffff;fill-opacity:1"
       id="path923" />
    <path
       d="m 201.20059,70.936455 q 0,-1.482422 0.53906,-2.238281 0.53907,-0.761719 1.57618,-0.761719 0.96679,0 1.4707,0.826172 l 0.0527,-0.708985 h 0.9375 v 6.398438 q 0,1.177734 -0.60351,1.804687 -0.60352,0.632813 -1.68164,0.632813 -0.46875,0 -1.05469,-0.234375 -0.58008,-0.228516 -0.87305,-0.56836 l 0.42188,-0.714843 q 0.64453,0.632812 1.42383,0.632812 1.29492,0 1.33007,-1.412109 v -0.826172 q -0.5039,0.744141 -1.42968,0.744141 -0.98438,0 -1.53516,-0.738282 -0.55078,-0.74414 -0.57422,-2.132812 z m 1.03711,0.591797 q 0,1.066406 0.31055,1.570312 0.3164,0.498047 1.03125,0.498047 0.77344,0 1.16015,-0.791016 v -3.169921 q -0.40429,-0.779297 -1.14843,-0.779297 -0.71485,0 -1.03125,0.503906 -0.31641,0.498047 -0.32227,1.535156 z"
       style="font-style:normal;font-variant:normal;font-weight:normal;font-stretch:normal;font-size:12px;font-family:'Roboto Condensed';-inkscape-font-specification:'Roboto Condensed, ';fill:#ffffff;fill-opacity:1"
       id="path925" />
    <path
       d="m 210.58145,74.393486 q -0.0937,-0.205078 -0.13476,-0.691406 -0.55079,0.808594 -1.40625,0.808594 -0.86133,0 -1.34766,-0.480469 -0.48047,-0.486328 -0.48047,-1.365235 0,-0.966796 0.65625,-1.535156 0.65625,-0.568359 1.79883,-0.580078 h 0.76172 v -0.673828 q 0,-0.568359 -0.25196,-0.808594 -0.25195,-0.240234 -0.76757,-0.240234 -0.46875,0 -0.76172,0.28125 -0.29297,0.27539 -0.29297,0.703125 h -1.03711 q 0,-0.486328 0.28711,-0.925781 0.28711,-0.445313 0.77344,-0.697266 0.48632,-0.251953 1.08398,-0.251953 0.97266,0 1.47656,0.486328 0.50977,0.480469 0.52149,1.40625 v 3.199219 q 0.006,0.732422 0.19922,1.271484 v 0.09375 z m -1.38281,-0.826172 q 0.38086,0 0.72656,-0.210937 0.3457,-0.210938 0.50391,-0.527344 v -1.511719 h -0.58594 q -0.73828,0.01172 -1.16602,0.333985 -0.42773,0.316406 -0.42773,0.890625 0,0.539062 0.2168,0.785156 0.21679,0.240234 0.73242,0.240234 z"
       style="font-style:normal;font-variant:normal;font-weight:normal;font-stretch:normal;font-size:12px;font-family:'Roboto Condensed';-inkscape-font-specification:'Roboto Condensed, ';fill:#ffffff;fill-opacity:1"
       id="path927" />
    <path
       d="m 216.14786,72.770439 q 0,-0.333984 -0.25196,-0.574219 -0.25195,-0.240234 -0.97265,-0.5625 -0.83789,-0.345703 -1.1836,-0.591796 -0.33984,-0.246094 -0.50976,-0.556641 -0.16992,-0.316406 -0.16992,-0.75 0,-0.773438 0.5625,-1.283203 0.56836,-0.515625 1.44726,-0.515625 0.92578,0 1.48828,0.539062 0.5625,0.539063 0.5625,1.382813 h -1.03125 q 0,-0.427735 -0.28711,-0.726563 -0.2871,-0.304687 -0.73242,-0.304687 -0.45703,0 -0.7207,0.240234 -0.25781,0.234375 -0.25781,0.632813 0,0.316406 0.1875,0.509765 0.19336,0.19336 0.91992,0.509766 1.1543,0.451172 1.57031,0.884766 0.41602,0.427734 0.41602,1.089843 0,0.826172 -0.56836,1.324219 -0.56836,0.492188 -1.52344,0.492188 -0.99023,0 -1.60547,-0.56836 -0.61523,-0.568359 -0.61523,-1.441406 h 1.04297 q 0.0176,0.527344 0.32226,0.826172 0.30469,0.298828 0.85547,0.298828 0.51563,0 0.78516,-0.228516 0.26953,-0.234375 0.26953,-0.626953 z"
       style="font-style:normal;font-variant:normal;font-weight:normal;font-stretch:normal;font-size:12px;font-family:'Roboto Condensed';-inkscape-font-specification:'Roboto Condensed, ';fill:#ffffff;fill-opacity:1"
       id="path929" />
    <path
       d="m 219.892,66.518486 v 1.535156 h 0.95508 v 0.837891 H 219.892 v 3.931641 q 0,0.375 0.12305,0.568359 0.12304,0.193359 0.42187,0.193359 0.20508,0 0.41602,-0.07031 l -0.0117,0.878906 q -0.35157,0.117188 -0.72071,0.117188 -0.61523,0 -0.9375,-0.439454 -0.32226,-0.439453 -0.32226,-1.242187 v -3.9375 h -0.9668 v -0.837891 h 0.9668 v -1.535156 z"
       style="font-style:normal;font-variant:normal;font-weight:normal;font-stretch:normal;font-size:12px;font-family:'Roboto Condensed';-inkscape-font-specification:'Roboto Condensed, ';fill:#ffffff;fill-opacity:1"
       id="path931" />
    <path
       d="m 224.34512,74.510674 q -1.18359,0 -1.8164,-0.703125 -0.63282,-0.708985 -0.64453,-2.074219 v -0.767578 q 0,-1.417969 0.61523,-2.220703 0.62109,-0.808594 1.72852,-0.808594 1.11328,0 1.66406,0.708984 0.55078,0.708985 0.5625,2.208985 v 0.679687 h -3.53906 v 0.146484 q 0,1.019532 0.38086,1.482422 0.38671,0.462891 1.10742,0.462891 0.45703,0 0.80273,-0.169922 0.35156,-0.175781 0.65625,-0.550781 l 0.53906,0.65625 q -0.67382,0.949219 -2.05664,0.949219 z m -0.11718,-5.683594 q -0.64454,0 -0.95508,0.445312 -0.31055,0.439453 -0.35156,1.371094 h 2.49609 v -0.140625 q -0.041,-0.902344 -0.32813,-1.289062 -0.28125,-0.386719 -0.86132,-0.386719 z"
       style="font-style:normal;font-variant:normal;font-weight:normal;font-stretch:normal;font-size:12px;font-family:'Roboto Condensed';-inkscape-font-specification:'Roboto Condensed, ';fill:#ffffff;fill-opacity:1"
       id="path933" />
    <path
       d="m 228.81583,74.393486 h -1.03711 v -6.339844 h 1.03711 z m 0.082,-8.021484 q 0,0.263672 -0.14649,0.439453 -0.14648,0.175781 -0.44531,0.175781 -0.29297,0 -0.43945,-0.175781 -0.14649,-0.175781 -0.14649,-0.439453 0,-0.263672 0.14649,-0.445313 0.14648,-0.18164 0.43945,-0.18164 0.29297,0 0.43945,0.1875 0.15235,0.18164 0.15235,0.439453 z"
       style="font-style:normal;font-variant:normal;font-weight:normal;font-stretch:normal;font-size:12px;font-family:'Roboto Condensed';-inkscape-font-specification:'Roboto Condensed, ';fill:#ffffff;fill-opacity:1"
       id="path935" />
    <path
       d="m 231.40567,73.50872 h 3.05859 v 0.884766 h -4.24218 v -0.796875 l 2.90625,-4.646484 h -2.88282 v -0.896485 h 4.10157 v 0.767578 z"
       style="font-style:normal;font-variant:normal;font-weight:normal;font-stretch:normal;font-size:12px;font-family:'Roboto Condensed';-inkscape-font-specification:'Roboto Condensed, ';fill:#ffffff;fill-opacity:1"
       id="path937" />
  </g>
</svg>
